<svg width="28" height="28" viewBox="0 0 28 28" fill="none" xmlns="http://www.w3.org/2000/svg">
<path d="M19.693 8.16047L19.6853 8.16043M13.136 4.34574L14.864 2.60695C15.3025 2.17919 15.9107 1.95971 16.5289 2.00611L23.5024 2.52942C24.547 2.60781 25.377 3.41753 25.4573 4.4366L25.9937 11.2397C26.0413 11.8428 25.8163 12.4361 25.3779 12.8639L13.136 25.3931C12.3065 26.2023 10.9615 26.2023 10.132 25.3931L2.62214 18.0667C1.79262 17.2574 1.79262 15.9454 2.62214 15.1361L3.20225 14.6232M3.20225 9.9317H8.01123M12.8202 9.9317H8.01123M8.01123 5.24023V9.9317M8.01123 14.6232V9.9317" stroke="black" stroke-width="2.5" stroke-linecap="round" stroke-linejoin="round"/>
</svg>
