<svg width="14" height="23" viewBox="0 0 14 23" fill="none" xmlns="http://www.w3.org/2000/svg">
<g id="Frame">
<path id="Vector" d="M2.10437 10.2857C2.1 10.4062 2.1 10.5223 2.1 10.6429V11.3571C2.1 11.4777 2.1 11.5938 2.10437 11.7143H1.4C0.625625 11.7143 0 12.3527 0 13.1429C0 13.933 0.625625 14.5714 1.4 14.5714H2.63812C3.93313 18.317 7.4375 21 11.55 21H12.6C13.3744 21 14 20.3616 14 19.5714C14 18.7812 13.3744 18.1429 12.6 18.1429H11.55C9.01688 18.1429 6.81625 16.6964 5.69187 14.5714H11.2C11.9744 14.5714 12.6 13.933 12.6 13.1429C12.6 12.3527 11.9744 11.7143 11.2 11.7143H4.90875C4.90437 11.5982 4.9 11.4777 4.9 11.3571V10.6429C4.9 10.5223 4.90437 10.4018 4.90875 10.2857H11.2C11.9744 10.2857 12.6 9.64732 12.6 8.85714C12.6 8.06696 11.9744 7.42857 11.2 7.42857H5.69187C6.81625 5.30357 9.01688 3.85714 11.55 3.85714H12.6C13.3744 3.85714 14 3.21875 14 2.42857C14 1.63839 13.3744 1 12.6 1H11.55C7.4375 1 3.93313 3.68304 2.63812 7.42857H1.4C0.625625 7.42857 0 8.06696 0 8.85714C0 9.64732 0.625625 10.2857 1.4 10.2857H2.10437Z" fill="black"/>
</g>
</svg>
