<svg width="28" height="24" viewBox="0 0 28 24" fill="none" xmlns="http://www.w3.org/2000/svg">
<path d="M12.3484 23.3469L12.2117 23.2206L2.63047 14.2909C0.951562 12.7266 0 10.5312 0 8.23155V8.05043C0 4.18653 2.73437 0.871482 6.51875 0.147C8.67344 -0.270125 10.8773 0.229328 12.6328 1.46973C13.125 1.82099 13.5844 2.22714 14 2.69366C14.2297 2.43021 14.4758 2.18872 14.7383 1.96369C14.9406 1.78806 15.1484 1.62341 15.3672 1.46973C17.1227 0.229328 19.3266 -0.270125 21.4813 0.141512C25.2656 0.865993 28 4.18653 28 8.05043V8.23155C28 10.5312 27.0484 12.7266 25.3695 14.2909L15.7883 23.2206L15.6516 23.3469C15.2031 23.764 14.6125 24 14 24C13.3875 24 12.7969 23.7695 12.3484 23.3469ZM13.0758 5.60805C13.0539 5.59159 13.0375 5.56963 13.0211 5.54768L12.0477 4.44998L12.0422 4.44449C10.7789 3.02297 8.87031 2.37533 7.01094 2.73208C4.4625 3.22056 2.625 5.44889 2.625 8.05043V8.23155C2.625 9.79578 3.27578 11.2941 4.41875 12.3589L14 21.2887L23.5813 12.3589C24.7242 11.2941 25.375 9.79578 25.375 8.23155V8.05043C25.375 5.45438 23.5375 3.22056 20.9945 2.73208C19.1352 2.37533 17.2211 3.02846 15.9633 4.44449C15.9633 4.44449 15.9633 4.44449 15.9578 4.44998C15.9523 4.45547 15.9578 4.44998 15.9523 4.45547L14.9789 5.55317C14.9625 5.57512 14.9406 5.59159 14.9242 5.61354C14.6781 5.86052 14.3445 5.99774 14 5.99774C13.6555 5.99774 13.3219 5.86052 13.0758 5.61354V5.60805Z" fill="black"/>
</svg>
