<svg width="25" height="29" viewBox="0 0 25 29" fill="none" xmlns="http://www.w3.org/2000/svg">
<g clip-path="url(#clip0_27_751)">
<path d="M12.5054 7.98623C8.95626 7.98623 6.09354 10.8919 6.09354 14.4942C6.09354 18.0966 8.95626 21.0022 12.5054 21.0022C16.0545 21.0022 18.9172 18.0966 18.9172 14.4942C18.9172 10.8919 16.0545 7.98623 12.5054 7.98623ZM12.5054 18.7253C10.2118 18.7253 8.33684 16.8278 8.33684 14.4942C8.33684 12.1606 10.2063 10.2632 12.5054 10.2632C14.8045 10.2632 16.6739 12.1606 16.6739 14.4942C16.6739 16.8278 14.7989 18.7253 12.5054 18.7253ZM20.675 7.72002C20.675 8.56396 20.0054 9.23799 19.1795 9.23799C18.348 9.23799 17.6839 8.5583 17.6839 7.72002C17.6839 6.88174 18.3536 6.20205 19.1795 6.20205C20.0054 6.20205 20.675 6.88174 20.675 7.72002ZM24.9217 9.26064C24.8268 7.22725 24.3692 5.42607 22.9016 3.94209C21.4395 2.45811 19.665 1.99365 17.6616 1.8917C15.5969 1.77275 9.40827 1.77275 7.34354 1.8917C5.34577 1.98799 3.57122 2.45244 2.10359 3.93643C0.635952 5.42041 0.183943 7.22158 0.0834961 9.25498C-0.0336914 11.3507 -0.0336914 17.6321 0.0834961 19.7278C0.178362 21.7612 0.635952 23.5624 2.10359 25.0464C3.57122 26.5304 5.34019 26.9948 7.34354 27.0968C9.40827 27.2157 15.5969 27.2157 17.6616 27.0968C19.665 27.0005 21.4395 26.536 22.9016 25.0464C24.3636 23.5624 24.8212 21.7612 24.9217 19.7278C25.0389 17.6321 25.0389 11.3563 24.9217 9.26064ZM22.2543 21.9765C21.819 23.0866 20.9764 23.9419 19.877 24.3894C18.2308 25.052 14.3246 24.8991 12.5054 24.8991C10.6862 24.8991 6.77434 25.0464 5.13372 24.3894C4.03997 23.9476 3.19734 23.0923 2.75649 21.9765C2.10359 20.3056 2.25426 16.3407 2.25426 14.4942C2.25426 12.6478 2.10917 8.67725 2.75649 7.01201C3.19176 5.90186 4.03439 5.04658 5.13372 4.59912C6.77992 3.93643 10.6862 4.08936 12.5054 4.08936C14.3246 4.08936 18.2364 3.94209 19.877 4.59912C20.9708 5.04092 21.8134 5.89619 22.2543 7.01201C22.9072 8.68291 22.7565 12.6478 22.7565 14.4942C22.7565 16.3407 22.9072 20.3112 22.2543 21.9765Z" fill="black"/>
</g>
<defs>
<clipPath id="clip0_27_751">
<rect width="25" height="29" fill="white"/>
</clipPath>
</defs>
</svg>
