<svg width="158" height="42" viewBox="0 0 158 42" fill="none" xmlns="http://www.w3.org/2000/svg">
<path d="M5.0155 14.4405H6.2655V13.1756L5.00074 13.1905L5.0155 14.4405ZM16.4998 8.50195L17.0542 7.38167C16.6981 7.20538 16.2793 7.20896 15.9262 7.39131L16.4998 8.50195ZM27.9995 14.1939H29.2495C29.2495 13.7186 28.98 13.2844 28.554 13.0736L27.9995 14.1939ZM5 14.4406L4.42644 13.33C4.00589 13.5472 3.74407 13.9833 3.7501 14.4566C3.75613 14.9298 4.02897 15.3591 4.45492 15.5655L5 14.4406ZM5.0155 27.8161H3.7655C3.7655 28.2909 4.03458 28.7248 4.45999 28.9358L5.0155 27.8161ZM16.469 33.4981L15.9135 34.6178C16.2781 34.7987 16.7079 34.7907 17.0656 34.5965L16.469 33.4981ZM27.9995 27.2349L28.5961 28.3333C28.9988 28.1146 29.2495 27.6931 29.2495 27.2349H27.9995ZM15.9453 9.62224L27.445 15.3141L28.554 13.0736L17.0542 7.38167L15.9453 9.62224ZM27.4375 13.0773L15.9069 18.8815L17.031 21.1146L28.5615 15.3104L27.4375 13.0773ZM5.00074 13.1905L4.98524 13.1907L5.01476 15.6906L5.03027 15.6904L5.00074 13.1905ZM5.57356 15.5513L17.0733 9.6126L15.9262 7.39131L4.42644 13.33L5.57356 15.5513ZM17.014 18.8732L5.54508 13.3157L4.45492 15.5655L15.9239 21.123L17.014 18.8732ZM6.2655 27.8161V14.4405H3.7655V27.8161H6.2655ZM4.45999 28.9358L15.9135 34.6178L17.0245 32.3783L5.57102 26.6963L4.45999 28.9358ZM17.719 33.4981V19.9981H15.219V33.4981H17.719ZM17.0656 34.5965L28.5961 28.3333L27.4029 26.1365L15.8723 32.3996L17.0656 34.5965ZM29.2495 27.2349V14.1939H26.7495V27.2349H29.2495Z" fill="#F82B1E"/>
<path d="M47.312 31.875C46.3537 31.875 45.3953 31.8438 44.437 31.7812C43.4787 31.7188 42.5412 31.625 41.6245 31.5C40.7078 31.3542 39.8224 31.2083 38.9683 31.0625V10.875C40.2808 10.6458 41.6037 10.4583 42.937 10.3125C44.2912 10.1458 45.6766 10.0625 47.0933 10.0625C49.3016 10.0625 51.2391 10.5104 52.9058 11.4062C54.5724 12.3021 55.8641 13.5521 56.7808 15.1562C57.7183 16.7604 58.187 18.6458 58.187 20.8125C58.187 22.3542 57.937 23.8021 57.437 25.1562C56.937 26.4896 56.2183 27.6667 55.2808 28.6875C54.3433 29.6875 53.1974 30.4688 51.8433 31.0312C50.5099 31.5938 48.9995 31.875 47.312 31.875ZM47.187 27.8125C48.562 27.8125 49.7391 27.5104 50.7183 26.9062C51.6974 26.3021 52.4474 25.4896 52.9683 24.4688C53.4891 23.4271 53.7495 22.2604 53.7495 20.9688C53.7495 19.6354 53.4891 18.4583 52.9683 17.4375C52.4474 16.3958 51.6974 15.5833 50.7183 15C49.7391 14.4167 48.562 14.125 47.187 14.125C46.562 14.125 45.9058 14.1562 45.2183 14.2188C44.5516 14.2812 43.9162 14.3646 43.312 14.4688V27.4688C43.937 27.5938 44.5828 27.6875 45.2495 27.75C45.937 27.7917 46.5828 27.8125 47.187 27.8125ZM69.7195 31.875C68.8028 31.875 67.8133 31.8333 66.7508 31.75C65.7091 31.6667 64.6987 31.5625 63.7195 31.4375C62.7612 31.3125 61.9487 31.1771 61.282 31.0312V10.8438C62.4695 10.5938 63.7299 10.4062 65.0633 10.2812C66.4174 10.1354 67.7924 10.0625 69.1883 10.0625C70.8758 10.0625 72.3133 10.3229 73.5008 10.8438C74.7091 11.3438 75.6362 12.0417 76.282 12.9375C76.9487 13.8333 77.282 14.8646 77.282 16.0312C77.282 17.0729 77.0008 18 76.4383 18.8125C75.8966 19.625 75.2091 20.25 74.3758 20.6875C75.0008 20.8542 75.6049 21.1354 76.1883 21.5312C76.7716 21.9062 77.2508 22.4167 77.6258 23.0625C78.0008 23.6875 78.1883 24.4896 78.1883 25.4688C78.1883 26.6354 77.8549 27.7083 77.1883 28.6875C76.5216 29.6458 75.5528 30.4167 74.282 31C73.032 31.5833 71.5112 31.875 69.7195 31.875ZM69.6258 28.125C70.8341 28.125 71.8028 27.8542 72.532 27.3125C73.2612 26.7708 73.6258 26.0729 73.6258 25.2188C73.6258 24.3229 73.2508 23.6667 72.5008 23.25C71.7508 22.8333 70.7924 22.625 69.6258 22.625H64.907V19.4062H69.6883C70.7508 19.4062 71.5633 19.1458 72.1258 18.625C72.6883 18.1042 72.9695 17.4375 72.9695 16.625C72.9695 16.0625 72.8028 15.5833 72.4695 15.1875C72.157 14.7708 71.7299 14.4479 71.1883 14.2188C70.6674 13.9896 70.0528 13.875 69.3445 13.875C68.657 13.875 67.9903 13.9062 67.3445 13.9688C66.6987 14.0104 66.1258 14.0833 65.6258 14.1875V27.75C66.0216 27.8333 66.4695 27.9062 66.9695 27.9688C67.4903 28.0312 67.9903 28.0729 68.4695 28.0938C68.9487 28.1146 69.3341 28.125 69.6258 28.125ZM81.2208 31.5V10.5625H96.127V14.3125H85.5645V27.6562H96.127V31.5H81.2208ZM83.752 22.6562V19H94.9083V22.6562H83.752Z" fill="#1CB1B1"/>
<path d="M108.503 31.9688C107.337 31.9688 106.316 31.6667 105.441 31.0625C104.566 30.4375 103.899 29.6979 103.441 28.8438V31.5H99.472V9H103.441V17.5C104.024 16.8333 104.743 16.3021 105.597 15.9062C106.472 15.5104 107.347 15.3125 108.222 15.3125C109.576 15.3125 110.805 15.6458 111.91 16.3125C113.035 16.9792 113.92 17.9375 114.566 19.1875C115.232 20.4375 115.566 21.9479 115.566 23.7188C115.566 25.4688 115.243 26.9583 114.597 28.1875C113.951 29.4167 113.087 30.3542 112.003 31C110.941 31.6458 109.774 31.9688 108.503 31.9688ZM107.503 27.9688C108.295 27.9688 108.982 27.7812 109.566 27.4062C110.149 27.0104 110.607 26.4896 110.941 25.8438C111.274 25.1979 111.441 24.4896 111.441 23.7188C111.441 22.9271 111.274 22.1875 110.941 21.5C110.607 20.8125 110.139 20.2604 109.535 19.8438C108.951 19.4271 108.243 19.2188 107.41 19.2188C106.639 19.2188 105.93 19.3958 105.285 19.75C104.639 20.0833 104.024 20.5521 103.441 21.1562V23.4062C103.441 24.3438 103.628 25.1562 104.003 25.8438C104.399 26.5312 104.91 27.0625 105.535 27.4375C106.16 27.7917 106.816 27.9688 107.503 27.9688Z" fill="#705695"/>
<path d="M124.036 31.9688C122.786 31.9688 121.619 31.6458 120.536 31C119.473 30.3542 118.609 29.4167 117.942 28.1875C117.296 26.9583 116.973 25.4688 116.973 23.7188C116.973 21.9479 117.296 20.4375 117.942 19.1875C118.609 17.9375 119.494 16.9792 120.598 16.3125C121.723 15.6458 122.963 15.3125 124.317 15.3125C125.192 15.3125 126.057 15.5104 126.911 15.9062C127.786 16.3021 128.515 16.8333 129.098 17.5V15.7188H133.067V31.5H129.098V28.8438C128.64 29.6979 127.973 30.4375 127.098 31.0625C126.223 31.6667 125.202 31.9688 124.036 31.9688ZM125.036 28C125.744 28 126.4 27.8125 127.005 27.4375C127.63 27.0625 128.14 26.5312 128.536 25.8438C128.932 25.1562 129.119 24.3438 129.098 23.4062V21.1562C128.536 20.5521 127.921 20.0729 127.255 19.7188C126.609 19.3646 125.9 19.1875 125.13 19.1875C124.296 19.1875 123.577 19.4062 122.973 19.8438C122.39 20.2604 121.932 20.8125 121.598 21.5C121.265 22.1875 121.098 22.9271 121.098 23.7188C121.098 24.4896 121.265 25.2083 121.598 25.875C121.932 26.5208 122.39 27.0417 122.973 27.4375C123.577 27.8125 124.265 28 125.036 28Z" fill="#D78F54"/>
<path d="M136.6 39L142.85 27.625L148.037 15.7188H152.568L141.1 39H136.6ZM141.881 31.4375L134.537 15.7188H139.162L144.85 28.4688L141.881 31.4375Z" fill="#FFC400"/>
</svg>
