<svg width="20" height="23" viewBox="0 0 20 23" fill="none" xmlns="http://www.w3.org/2000/svg">
<g clip-path="url(#clip0_27_757)">
<path d="M20 9.4291C18.0339 9.43334 16.1162 8.81577 14.5179 7.66367V15.6957C14.5174 17.1833 14.0656 18.6352 13.2228 19.8574C12.3801 21.0796 11.1866 22.0137 9.80191 22.5349C8.41726 23.056 6.90749 23.1393 5.47453 22.7736C4.04156 22.4079 2.75371 21.6107 1.78321 20.4886C0.812715 19.3664 0.205845 17.9729 0.0437654 16.4943C-0.118315 15.0157 0.172122 13.5225 0.876232 12.2145C1.58034 10.9065 2.66456 9.846 3.98387 9.17484C5.30318 8.50368 6.7947 8.25386 8.25893 8.45879V12.4973C7.58941 12.2852 6.87041 12.2914 6.2046 12.515C5.53879 12.7386 4.96021 13.1682 4.55147 13.7424C4.14274 14.3166 3.92475 15.006 3.92863 15.7123C3.93251 16.4186 4.15806 17.1056 4.57308 17.6752C4.9881 18.2448 5.57136 18.6679 6.23959 18.8841C6.90782 19.1003 7.62684 19.0985 8.29399 18.879C8.96115 18.6595 9.54232 18.2335 9.95452 17.6618C10.3667 17.0901 10.5889 16.402 10.5893 15.6957V0H14.5179C14.5156 0.334337 14.544 0.66817 14.6027 0.997266C14.7393 1.73084 15.0232 2.42868 15.4369 3.04813C15.8506 3.66757 16.3855 4.19562 17.0089 4.6C17.8963 5.18975 18.9365 5.50377 20 5.50293V9.4291Z" fill="black"/>
</g>
<defs>
<clipPath id="clip0_27_757">
<rect width="20" height="23" fill="white"/>
</clipPath>
</defs>
</svg>
