<svg width="30" height="27" viewBox="0 0 30 27" fill="none" xmlns="http://www.w3.org/2000/svg">
<path d="M28.63 6.54434C28.3019 5.29453 27.3384 4.31367 26.1144 3.98145C23.8957 3.375 14.9998 3.375 14.9998 3.375C14.9998 3.375 6.104 3.375 3.88525 3.98145C2.6613 4.31367 1.69775 5.29453 1.36963 6.54434C0.775879 8.80664 0.775879 13.5211 0.775879 13.5211C0.775879 13.5211 0.775879 18.2355 1.36963 20.4979C1.69775 21.7477 2.6613 22.6863 3.88525 23.0186C6.104 23.625 14.9998 23.625 14.9998 23.625C14.9998 23.625 23.8957 23.625 26.1144 23.0186C27.3384 22.6863 28.3019 21.7424 28.63 20.4979C29.2238 18.2355 29.2238 13.5211 29.2238 13.5211C29.2238 13.5211 29.2238 8.80664 28.63 6.54434ZM12.0936 17.8031V9.23906L19.5259 13.5211L12.0936 17.8031Z" fill="black"/>
</svg>
